<svg xmlns="http://www.w3.org/2000/svg" viewBox="0 12.600000381469727 372.6499938964844 36.60000228881836" data-asc="0.968" width="372.6499938964844" height="36.60000228881836"><defs/><g fill="#ffffff"><g transform="translate(0, 0)"><path d="M11.20 48.40L0 13.40L12.15 13.40L21.20 42.95L15.10 42.95L24.70 13.40L35.55 13.40L44.50 42.95L38.65 42.95L48.10 13.40L59.30 13.40L48.10 48.40L35.45 48.40L28.15 24.20L31.55 24.20L23.85 48.40L11.20 48.40ZM73.45 26.40L89.05 26.40L89.05 34.90L73.45 34.90L73.45 26.40M74.25 39.50L91.75 39.50L91.75 48.40L62.65 48.40L62.65 13.40L91.10 13.40L91.10 22.30L74.25 22.30L74.25 39.50ZM96.30 48.40L96.30 13.40L106 13.40L123.80 34.70L119.30 34.70L119.30 13.40L130.80 13.40L130.80 48.40L121.10 48.40L103.30 27.10L107.80 27.10L107.80 48.40L96.30 48.40ZM136.50 48.40L136.50 13.40L148.30 13.40L148.30 39.25L164.10 39.25L164.10 48.40L136.50 48.40ZM167.35 48.40L167.35 13.40L179.15 13.40L179.15 48.40L167.35 48.40ZM184.85 48.40L184.85 13.40L194.55 13.40L212.35 34.70L207.85 34.70L207.85 13.40L219.35 13.40L219.35 48.40L209.65 48.40L191.85 27.10L196.35 27.10L196.35 48.40L184.85 48.40ZM232.65 48.40L232.65 22.55L222.40 22.55L222.40 13.40L254.70 13.40L254.70 22.55L244.45 22.55L244.45 48.40L232.65 48.40ZM253.95 48.40L269.25 13.40L280.85 13.40L296.15 48.40L283.95 48.40L272.65 19.00L277.25 19.00L265.95 48.40L253.95 48.40M263.05 42.30L266.05 33.80L282.15 33.80L285.15 42.30L263.05 42.30ZM298.05 48.40L298.05 13.40L307.75 13.40L325.55 34.70L321.05 34.70L321.05 13.40L332.55 13.40L332.55 48.40L322.85 48.40L305.05 27.10L309.55 27.10L309.55 48.40L298.05 48.40ZM356.40 49.20Q352.15 49.20 348.57 47.88Q345 46.55 342.38 44.10Q339.75 41.65 338.30 38.30Q336.85 34.95 336.85 30.90Q336.85 26.85 338.30 23.50Q339.75 20.15 342.40 17.70Q345.05 15.25 348.67 13.92Q352.30 12.60 356.65 12.60Q361.85 12.60 365.92 14.35Q370 16.10 372.65 19.35L365.10 26.00Q363.45 24.10 361.52 23.12Q359.60 22.15 357.25 22.15Q355.30 22.15 353.72 22.75Q352.15 23.35 351.05 24.50Q349.95 25.65 349.35 27.25Q348.75 28.85 348.75 30.90Q348.75 32.85 349.35 34.47Q349.95 36.10 351.05 37.25Q352.15 38.40 353.67 39.02Q355.20 39.65 357.10 39.65Q359.10 39.65 361 38.97Q362.90 38.30 365.05 36.65L371.65 44.75Q368.45 46.90 364.35 48.05Q360.25 49.20 356.40 49.20M361.40 43.25L361.40 29.95L371.65 29.95L371.65 44.75L361.40 43.25Z"/></g></g></svg>